<svg width="10" height="12" viewBox="0 0 10 12" fill="none" xmlns="http://www.w3.org/2000/svg">
<path fill-rule="evenodd" clip-rule="evenodd" d="M0.395836 5.99992C0.395836 5.11396 1.11405 4.39575 2 4.39575H7.83334C8.71929 4.39575 9.4375 5.11396 9.4375 5.99992V9.49992C9.4375 10.3859 8.71929 11.1041 7.83334 11.1041H2C1.11405 11.1041 0.395836 10.3859 0.395836 9.49992V5.99992ZM2 5.27075C1.59729 5.27075 1.27084 5.59721 1.27084 5.99992V9.49992C1.27084 9.90263 1.59729 10.2291 2 10.2291H7.83334C8.23604 10.2291 8.5625 9.90263 8.5625 9.49992V5.99992C8.5625 5.59721 8.23604 5.27075 7.83334 5.27075H2Z" fill="white"/>
<path fill-rule="evenodd" clip-rule="evenodd" d="M2.14584 3.66659C2.14584 2.1363 3.38638 0.895752 4.91667 0.895752C6.44696 0.895752 7.6875 2.1363 7.6875 3.66659V5.27075H2.14584V3.66659ZM4.91667 1.77075C3.86963 1.77075 3.02084 2.61955 3.02084 3.66659V4.39575H6.8125V3.66659C6.8125 2.61955 5.96371 1.77075 4.91667 1.77075Z" fill="white"/>
</svg>
